<svg xmlns="http://www.w3.org/2000/svg" viewBox="0 0 300 300" width="300" height="300"><path d="M0 0h300v300H0V0Z" style="fill:#f8f8f8"/><path d="M0 0h53c-2.2932 9.172801-4.539912 18.145024-7.375 27.125C43.270209 34.714907 41.051364 42.32257 39 50c-2.300107 8.602182-4.807113 17.124489-7.464844 25.623047-1.670846 5.380757-3.202214 10.787675-4.64209 16.234619l-.554733 2.08973C25.891427 95.631385 25.445602 97.315663 25 99c9.423778.11649 18.847303.205015 28.271647.25906 4.377404.025957 8.754311.061094 13.13143.118137 4.234065.054826 8.467657.084328 12.70205.09719 1.60537.00915 3.210719.027014 4.815884.054263 12.610647.205318 24.243058-1.448713 34.426645-9.71615 6.406347-7.027292 7.96507-15.417198 7.863281-24.578125-.316478-4.852674-1.180752-8.214522-4.746093-11.761719C120.030677 52.248698 118.520434 51.114984 117 50l2.0625-2c.984015-.99523 1.962557-1.995882 2.9375-3l1.785156-1.832031c6.548194-7.048693 8.80706-12.955399 8.5-22.621094C131.613311 14.546283 128.498154 10.798441 124 7c-6.385163-4.383164-13.44799-5.125072-21-6V0h61c-1.034853 6.20912-2.54453 12.120074-4.1875 18.1875l-.951172 3.527344c-2.019243 7.40797-4.213566 14.730223-6.592773 22.029052-2.475938 7.69286-4.513757 15.492812-6.577393 23.304444C142.74474 78.125058 139.395082 89.052596 136 100l29-1c3.445632-12.305829 6.778208-24.633802 10-37 3.208256-.058496 6.416372-.093762 9.625-.125l2.738281-.050781c11.343376-.082799 11.343376-.082799 15.263428 3.777832 1.877435 3.278251 1.851465 6.326369 1.88501 10.007324.01795.72681.035902 1.45362.054397 2.202454.054016 2.312665.08797 4.625125.121384 6.938171.03318 1.571643.067671 3.14326.103516 4.714844.087296 3.84508.147432 7.689233.208984 11.535156h27c-.217172-5.17892-.442697-10.356063-.689697-15.533447-.081444-1.760195-.157994-3.520623-.229492-5.28125-.103814-2.535203-.225379-5.069035-.350342-7.603272l-.085648-2.374313C230.402251 65.696925 229.84117 62.568555 227 59c-3.066808-1.826298-3.066808-1.826298-6-3 2.701913-2.084508 5.466798-3.906864 8.375-5.6875C236.03813 45.885025 240.72525 39.708873 243 32c.6574-7.121833 1.030573-14.783834-3-21-5.538349-6.12575-11.7811-9.17811-20-10V0h52v172H0V0Z" transform="translate(13 114)" style="fill:#288b60"/><path d="M0 0h271v66H0V0Z" transform="translate(14 15)" style="fill:#ecb739"/><path d="M0 0c4.229036-.087257 8.45784-.140479 12.6875-.1875l3.63086-.076172 3.505859-.029297 3.221435-.047607C26.7081.08163 29.375572 1.375572 32 4c.665511 3.925673.800267 7.524074-1.128906 11.082031C27.6224 19.111091 25.030232 20.579995 20 22c-3.067871.22705-3.067871.22705-6.273438.195313l-3.496093-.019532L6.625 22.125l-3.675781-.027344C-.034058 22.074166-3.016926 22.041316-6 22c1.279411-7.609131 3.42757-14.732259 6-22Z" transform="translate(78 172)" style="fill:#2d8e63"/><path d="M0 0c4.208099-.116568 8.41578-.187376 12.625-.25l3.605469-.101563c9.897595-.110587 9.897595-.110587 13.566406 2.09375C32 4 32 4 32.726563 6.148438 32.482413 11.500916 31.73181 14.875369 28 19c-4.32888 2.59756-7.4692 3.364726-12.492188 3.292969L11.875 22.263672l-3.75-.076172-3.820313-.041016C1.202685 22.111234-1.898434 22.061955-5 22c.633158-5.125247 1.681607-9.965308 3.0625-14.9375.18627-.683848.37254-1.367695.564453-2.072266C-.919109 3.325797-.46009 1.662747 0 0Z" transform="translate(200 134)" style="fill:#2b8d62"/><path d="M0 0c4.228935-.11634 8.457457-.1873 12.6875-.25l3.63086-.101563 3.505859-.039062 3.221435-.063477C26.752231.115623 28.396031 1.341208 31 4c.55399 3.80868.330585 6.191903-1.125 9.75-3.042529 3.651034-6.425684 5.09819-11.126465 5.590576l-3.459473-.047607-3.76953-.029297L7.625 19.1875l-3.964844-.041016C.439682 19.111224-2.779946 19.061936-6 19c.8102-2.792353 1.623051-5.583886 2.4375-8.375l.697266-2.40625.673828-2.304688.618896-2.126464C-1 2-1 2 0 0Z" transform="translate(89 134)" style="fill:#2e8e64"/></svg>