<svg xmlns="http://www.w3.org/2000/svg" viewBox="0 0 300 300" width="300" height="300"><path d="M0 0h300v300H0V0Z" style="fill:#00939a"/><path d="M0 0c5.6 5.6 5.6 5.6 7.875 9.1875 2.802468 4.349664 5.773263 8.55328 8.804688 12.746094C18 24 18 24 18 26h2l2 6h2c1.621094 2.265625 1.621094 2.265625 3.4375 5.25 2.499999 4.089954 2.499999 4.089954 5.285156 7.984375C34 47 34 47 34 49h2l1.5 2.8125c2.43821 4.262603 5.31597 8.152247 8.226563 12.101563 6.284958 8.531128 12.369824 17.171372 18.20703 26.015625 3.527205 5.240798 7.23863 10.34907 10.92627 15.477539 2.126719 2.97103 4.20874 5.97315 6.296387 8.97168 1.404535 1.996701 2.82088 3.981942 4.25 5.960937 4.635393 6.42642 9.101732 12.869213 13.21875 19.648437C99.84705 142.126054 99.84705 142.126054 102 143c.980664 1.68441 1.956631 3.371904 2.89795 5.078613 1.681687 2.931964 3.67011 5.63591 5.66455 8.358887.87479 1.211452 1.74844 2.423727 2.621094 3.636719l1.378418 1.915527c2.550901 3.566065 5.063111 7.158294 7.562988 10.760254l1.470947 2.095459C127 179.768309 127 179.768309 127 182h2c1.515625 2.125 1.515625 2.125 3.25 5 2.64458 4.298825 5.415856 8.321634 8.585938 12.246094C142.10266 201.15468 142.577074 202.762427 143 205h5l.726563-1.636719c1.606164-2.980764 3.569718-5.501701 5.648437-8.175781l1.317627-1.70044c3.948285-5.075768 7.989372-10.076488 12.032959-15.076415 3.56114-4.433422 6.856583-8.987844 9.969727-13.750489L179 163h2l.1875-1.6875c1.142112-3.250627 3.380356-4.890915 5.8125-7.3125 1.367736-1.744398 2.699844-3.517167 4-5.3125 3.700395-5.014035 7.54706-9.870571 11.5-14.6875 4.523198-5.518327 8.875316-11.121269 13.113281-16.863281 2.932092-3.85347 5.998398-7.585214 9.074219-11.324219 4.009174-4.875665 7.843245-9.730173 11.164063-15.113281C237.06701 88.900853 238.458496 87.520212 240 86l1-2h2l2-5h2l.730469-2.171875c1.455119-3.241557 3.245802-5.401594 5.582031-8.078125 6.00881-7.008422 11.552858-14.346783 17.125488-21.703125 1.452235-1.903023 2.921478-3.790703 4.401856-5.671875 4.451312-5.669031 8.53875-11.308535 12.003906-17.644531L288 22h2l.777344-2.167969c1.303375-3.019 2.88403-5.465492 4.785156-8.144531l1.878906-2.675781L299 7h1v234H0V0Z" transform="translate(0 59)" style="fill:#000"/><path d="M0 0h300v60l-8-5v-2l-3.1875-.875C285 51 285 51 282.851562 49.953125 271.333013 46.103089 257.016018 48.843271 246 53l-2.855469 1.027344c-8.08319 3.132933-15.64875 7.318281-23.285156 11.390625C215.263144 67.867639 210.645689 70.270504 206 72.625l-2.012695 1.03833C201.119432 75.10817 199.258437 76 196 76v2c-2.906003 1.25665-4.796046 2-8 2v2l-3.472656 1.425781c-1.52996.62888-3.059907 1.257787-4.589844 1.886719l-2.279297.935547-2.25586.927734c-.74266.302447-1.485322.604893-2.250488.916504-1.37963.581968-2.747199 1.193952-4.09668 1.842774-2.594631 1.235773-4.686138 2.06037-7.578612 2.096191-3.603784-1.500629-6.24588-3.940982-9.101563-6.53125a3314.241985 3314.241985 0 0 0-3.761719-3.3125l-1.864746-1.652344C142.60445 76.896785 138.286717 73.467452 134 70c-1.186576-.98001-2.37275-1.960508-3.558594-2.941406C122.633215 60.64411 114.814006 54.98769 106 50l-1.844727-1.062988c-7.027063-4.03007-13.803483-7.600635-21.788085-9.3667C80 39 80 39 77.8396 37.98755c-3.56453-1.239663-6.910173-1.330526-10.640381-1.358643l-2.284958-.027359c-1.597764-.014477-3.195586-.023383-4.793411-.027084-2.388382-.011742-4.774041-.06081-7.161866-.111572C38.9146 36.313074 26.742197 39.44123 14.3125 46.125l-1.966797 1.011719c-2.787576 1.44625-5.502706 2.959865-8.177734 4.605469C2 53 2 53 0 53V0Z" style="fill:#000"/><path d="m0 0 2 1v2l2.3125.8125C8.377224 5.60854 8.377224 5.60854 10 8c.71664 5.478312-1.244913 8.535204-4.4375 12.75-.832755 1.140097-1.664818 2.2807-2.496094 3.421875L1 27l-1 2h-2l-.664063 1.984375C-4.468533 35.057626-6.866582 38.57979-9.375 42.25l-1.460938 2.21875-1.4375 2.109375-1.294433 1.918945C-15.316256 50.33189-16.553137 50.517242-19 51c-2.30028 1.648915-2.30028 1.648915-4.625 3.6875-14.63547 11.982256-31.162783 18.690444-50.143555 17.546387C-90.178036 70.513943-105.28285 60.853817-118 51l-2.640625-1.917969L-123.125 47.25l-2.195313-1.609375C-127.221728 43.783427-127.627515 42.596105-128 40c2.139216-.950763 4.278475-1.901425 6.417969-2.851563 1.670138-.742845 3.339466-1.487514 5.007812-2.234375C-105.582237 30-105.582237 30-102 30v-2c2.906003-1.25665 4.796046-2 8-2v-2l1.62622-.759277c9.896192-4.633422 19.7-9.35123 29.31128-14.553223C-55.545183 4.648842-48.150894 1.580592-40-1l2.378906-.960938C-26.337986-6.238707-10.503124-6.08204 0 0Z" transform="translate(290 52)" style="fill:#ebb732"/><path d="M0 0c-1.292997 2.884378-2.659414 4.872194-5 7l-1-3c3.75-4 3.75-4 6-4Z" transform="translate(274 101)" style="fill:#1f8f85"/></svg>